# xmcd CD database file
#
# Track frame offsets:
#	150
#	16367
#	42510
#	63028
#	76974
#	94748
#	104556
#	126433
#	143942
#	159300
#	187945
#	219509
#	233528
#	263033
#	288568
#	311624
#
# Disc length: 4699 seconds
#
# Revision: 2
# Processed by: cddbd v1.5.2PL0 Copyright (c) Steve Scherf et al.
# Submitted via: CDex 1.51
#
DISCID=db125910
DTITLE=Korner, Alexis - Buxton '95-The Alexis Korner Memorial Conce
DYEAR=2002
DGENRE=Blues
TTITLE0=Connie Lush and Blues Shouter/300 Ibs Of Joy
TTITLE1=Chris Farlowe/Stormy Monday Blues
TTITLE2=Mike Sanchez/Down The Road Apiece
TTITLE3=Dave Berry/Just A Little Bit
TTITLE4=Norman Beaker Band/Cry To Me
TTITLE5=Tony McPhee/I Can't Be Satisfied
TTITLE6=unbTony McPhee/Death Letter
TTITLE7=uBrian Knight and Toni Vines/Honey Bee
TTITLE8=Brian Knight and Toni Vines/KC Moan
TTITLE9=Jack Bruce/White Room
TTITLE10=Jack Bruce/Sunshine Of Your Love
TTITLE11=Jack Bruce and Paul Jones/Sonny Boy Williamson
TTITLE12=Paul Jones/Every Day I Have The Blues
TTITLE13=Zoot Money/Geneva/Good Luck Soul
TTITLE14=Herbie Goins/Shuffle
TTITLE15=unbekannt - Herbie Goins: Hoochie Coochie Man
EXTD=YEAR: 2002
EXTT0=
EXTT1=
EXTT2=
EXTT3=
EXTT4=
EXTT5=
EXTT6=
EXTT7=
EXTT8=
EXTT9=
EXTT10=
EXTT11=
EXTT12=
EXTT13=
EXTT14=
EXTT15=
PLAYORDER=
